<svg xmlns="http://www.w3.org/2000/svg" xmlns:xlink="http://www.w3.org/1999/xlink" width="500" zoomAndPan="magnify" viewBox="0 0 375 374.999991" height="500" preserveAspectRatio="xMidYMid meet" version="1.2"><defs><clipPath id="05892b89db"><path d="M 4 36.601562 L 370.496094 36.601562 L 370.496094 344.53125 L 4 344.53125 Z M 4 36.601562 "/></clipPath><clipPath id="342ca9a282"><path d="M 193.265625 40.128906 L 369.234375 334.871094 C 370.410156 336.84375 370.4375 339.300781 369.304688 341.296875 C 368.167969 343.296875 366.046875 344.53125 363.75 344.53125 L 11.25 344.53125 C 8.953125 344.53125 6.832031 343.296875 5.695312 341.296875 C 4.5625 339.300781 4.589844 336.84375 5.765625 334.871094 L 181.734375 40.128906 C 182.945312 38.097656 185.136719 36.855469 187.5 36.855469 C 189.863281 36.855469 192.054688 38.097656 193.265625 40.128906 Z M 193.265625 40.128906 "/></clipPath><clipPath id="4767ec77ec"><path d="M 42 234.667969 L 149.667969 234.667969 L 149.667969 330.46875 L 42 330.46875 Z M 42 234.667969 "/></clipPath><clipPath id="a3947fd4bc"><path d="M 101.476562 238.046875 L 148.707031 320.699219 C 149.859375 322.722656 149.851562 325.203125 148.683594 327.21875 C 147.515625 329.230469 145.363281 330.46875 143.035156 330.46875 L 48.75 330.46875 C 46.421875 330.46875 44.269531 329.230469 43.101562 327.21875 C 41.933594 325.203125 41.925781 322.722656 43.082031 320.699219 L 90.3125 238.046875 C 91.457031 236.042969 93.585938 234.808594 95.894531 234.808594 C 98.199219 234.808594 100.332031 236.042969 101.476562 238.046875 Z M 101.476562 238.046875 "/></clipPath><clipPath id="6bedb7abf9"><path d="M 225.105469 234.667969 L 332.882812 234.667969 L 332.882812 330.46875 L 225.105469 330.46875 Z M 225.105469 234.667969 "/></clipPath><clipPath id="17b49ddd6f"><path d="M 284.6875 238.046875 L 331.917969 320.699219 C 333.074219 322.722656 333.066406 325.203125 331.898438 327.21875 C 330.730469 329.230469 328.578125 330.46875 326.25 330.46875 L 231.964844 330.46875 C 229.636719 330.46875 227.484375 329.230469 226.316406 327.21875 C 225.148438 325.203125 225.140625 322.722656 226.292969 320.699219 L 273.523438 238.046875 C 274.667969 236.042969 276.800781 234.808594 279.105469 234.808594 C 281.414062 234.808594 283.542969 236.042969 284.6875 238.046875 Z M 284.6875 238.046875 "/></clipPath><clipPath id="ae50a349c0"><path d="M 133.496094 84.667969 L 241.273438 84.667969 L 241.273438 180.46875 L 133.496094 180.46875 Z M 133.496094 84.667969 "/></clipPath><clipPath id="60a5a88108"><path d="M 193.082031 88.046875 L 240.3125 170.699219 C 241.464844 172.722656 241.457031 175.203125 240.289062 177.21875 C 239.121094 179.230469 236.972656 180.46875 234.644531 180.46875 L 140.355469 180.46875 C 138.027344 180.46875 135.878906 179.230469 134.710938 177.21875 C 133.542969 175.203125 133.535156 172.722656 134.6875 170.699219 L 181.917969 88.046875 C 183.0625 86.042969 185.191406 84.808594 187.5 84.808594 C 189.808594 84.808594 191.9375 86.042969 193.082031 88.046875 Z M 193.082031 88.046875 "/></clipPath></defs><g id="1a512db6ca"><g clip-rule="nonzero" clip-path="url(#05892b89db)"><g clip-rule="nonzero" clip-path="url(#342ca9a282)"><path style=" stroke:none;fill-rule:nonzero;fill:#00bc7d;fill-opacity:1;" d="M 0 30.46875 L 375.402344 30.46875 L 375.402344 344.53125 L 0 344.53125 Z M 0 30.46875 "/></g></g><g clip-rule="nonzero" clip-path="url(#4767ec77ec)"><g clip-rule="nonzero" clip-path="url(#a3947fd4bc)"><path style=" stroke:none;fill-rule:nonzero;fill:#ffffff;fill-opacity:1;" d="M 37.5 228.28125 L 154.457031 228.28125 L 154.457031 330.46875 L 37.5 330.46875 Z M 37.5 228.28125 "/></g></g><g clip-rule="nonzero" clip-path="url(#6bedb7abf9)"><g clip-rule="nonzero" clip-path="url(#17b49ddd6f)"><path style=" stroke:none;fill-rule:nonzero;fill:#ffffff;fill-opacity:1;" d="M 220.714844 228.28125 L 337.671875 228.28125 L 337.671875 330.46875 L 220.714844 330.46875 Z M 220.714844 228.28125 "/></g></g><g clip-rule="nonzero" clip-path="url(#ae50a349c0)"><g clip-rule="nonzero" clip-path="url(#60a5a88108)"><path style=" stroke:none;fill-rule:nonzero;fill:#ffffff;fill-opacity:1;" d="M 129.105469 78.28125 L 246.066406 78.28125 L 246.066406 180.46875 L 129.105469 180.46875 Z M 129.105469 78.28125 "/></g></g></g></svg>